<svg version="1.1" xmlns="http://www.w3.org/2000/svg" viewBox="-2811.7341706481457 -1732.09608001709 8768.34256450801 2853.8881439208985"><desc>Created with Snap</desc><defs></defs><g><g transform="matrix(69.984,0,0,69.984,-2504.0472,-1424.8961)"><g display="none"><rect x="-289" y="-7.666" display="inline" fill="#210070" width="408" height="202.666" style=""></rect></g><g><g><rect x="21.561" width="2.181" height="15.484" fill="#210070" style=""></rect><rect x="18.235" y="3.387" width="2.181" height="12.097" fill="#210070" style=""></rect><rect x="14.909" y="6.774" width="2.181" height="8.71" fill="#210070" style=""></rect><rect x="11.584" y="9.678" width="2.181" height="5.807" fill="#210070" style=""></rect><rect x="8.258" y="12.289" width="2.181" height="3.195" fill="#210070" style=""></rect><path d="M7.388,2.847c0,0.945,0.684,1.445,1.793,1.879c0.804,0.326,1.228,0.695,1.228,1.293c0,0.619-0.522,1.065-1.293,1.065    c-0.609,0-1.174-0.207-1.565-0.467L7.29,7.345c0.38,0.272,1.032,0.467,1.662,0.478V8.92h0.684V7.79    c1.119-0.185,1.717-0.989,1.717-1.847c0-0.967-0.565-1.532-1.684-1.988C8.725,3.564,8.323,3.281,8.323,2.716    c0-0.435,0.315-0.934,1.152-0.934c0.695,0,1.141,0.239,1.369,0.369l0.272-0.717c-0.315-0.185-0.761-0.359-1.412-0.38V0H9.029    v1.097C8.029,1.26,7.388,1.945,7.388,2.847z" fill="#210070" style=""></path><path d="M18.021,32h4.391l0.025-0.473c0.108-2.008,1.733-3.207,3.791-4.725c1.026-0.757,2.189-1.615,3.28-2.677    c3.407-3.317,2.354-8.669,2.309-8.895l-0.104-0.508l-0.504,0.123c-1.764,0.429-1.9,1.569-2.058,2.89    c-0.082,0.68-0.174,1.45-0.468,2.365c-0.312,0.976-0.983,1.674-1.685,2.162c0.406-0.512,0.817-1.111,1.161-1.781    c0.4-0.779,0.431-1.386,0.09-1.803c-0.568-0.7-1.86-0.385-2.112-0.313l-0.169,0.048l-0.103,0.141    c-0.012,0.017-1.301,1.749-5.659,4.805c-4.814,3.374-2.351,8.32-2.324,8.37L18.021,32z M20.781,24.177    c3.838-2.69,5.366-4.385,5.776-4.885c0.422-0.09,0.845-0.07,0.918,0.019c0.001,0.001,0.076,0.167-0.204,0.714    c-1.017,1.979-2.734,3.336-2.752,3.349l-1.678,1.312l2.086-0.427c0.151-0.031,3.729-0.797,4.709-3.853    c0.322-1.006,0.425-1.862,0.507-2.551c0.125-1.04,0.187-1.555,0.777-1.854c0.16,1.397,0.305,5.059-2.109,7.409    c-1.042,1.015-2.127,1.815-3.177,2.589c-2.037,1.503-3.813,2.813-4.147,5.002h-2.838C18.25,30.023,17.23,26.665,20.781,24.177z" fill="#210070" style=""></path><path d="M11.793,23.358c-4.358-3.056-5.647-4.788-5.659-4.805L6.03,18.411l-0.168-0.046c-0.252-0.071-1.544-0.387-2.112,0.313    c-0.341,0.417-0.311,1.023,0.09,1.803c0.344,0.67,0.755,1.27,1.161,1.781c-0.701-0.488-1.372-1.187-1.685-2.162    c-0.294-0.915-0.386-1.686-0.468-2.365c-0.157-1.32-0.294-2.46-2.058-2.89l-0.504-0.123l-0.104,0.508    c-0.046,0.226-1.099,5.578,2.309,8.895c1.091,1.062,2.254,1.92,3.28,2.677c2.058,1.518,3.683,2.717,3.791,4.725L9.588,32h4.391    l0.139-0.271C14.144,31.679,16.607,26.732,11.793,23.358z M13.349,31h-2.836c-0.334-2.188-2.11-3.499-4.147-5.002    c-1.05-0.773-2.135-1.574-3.177-2.589C0.781,21.065,0.922,17.4,1.08,16c0.59,0.299,0.652,0.814,0.776,1.854    c0.082,0.688,0.185,1.545,0.507,2.551c0.98,3.056,4.558,3.821,4.709,3.853l2.095,0.429L7.48,23.373    c-0.018-0.014-1.73-1.361-2.752-3.349c-0.28-0.547-0.205-0.713-0.204-0.714c0.072-0.089,0.495-0.108,0.918-0.019    c0.41,0.5,1.938,2.194,5.776,4.885C14.754,26.654,13.745,30.02,13.349,31z" fill="#210070" style=""></path></g></g><g display="none"><g display="inline"><path d="M23.742,0h-2.181v15.484h2.181V0z M23.242,14.984h-1.181V0.5h1.181V14.984z" fill="#210070" style=""></path><path d="M20.416,3.387h-2.181v12.097h2.181V3.387z M19.916,14.984h-1.181V3.887h1.181V14.984z" fill="#210070" style=""></path><path d="M17.091,6.774h-2.181v8.71h2.181V6.774z M16.591,14.984h-1.181v-7.71h1.181V14.984z" fill="#210070" style=""></path><path d="M13.765,9.678h-2.181v5.807h2.181V9.678z M13.265,14.984h-1.181v-4.807h1.181V14.984z" fill="#210070" style=""></path><path d="M8.258,12.289v3.195h2.181v-3.195H8.258z M9.939,14.984H8.758v-2.195h1.181V14.984z" fill="#210070" style=""></path><path d="M7.388,2.847c0,0.945,0.684,1.445,1.793,1.879c0.804,0.326,1.228,0.695,1.228,1.293c0,0.619-0.522,1.065-1.293,1.065    c-0.609,0-1.174-0.207-1.565-0.467L7.29,7.345c0.38,0.272,1.032,0.467,1.662,0.478V8.92h0.684V7.79    c1.119-0.185,1.717-0.989,1.717-1.847c0-0.967-0.565-1.532-1.684-1.988C8.725,3.564,8.323,3.281,8.323,2.716    c0-0.435,0.315-0.934,1.152-0.934c0.695,0,1.141,0.239,1.369,0.369l0.272-0.717c-0.315-0.185-0.761-0.359-1.412-0.38V0H9.029    v1.097C8.029,1.26,7.388,1.945,7.388,2.847z" fill="#210070" style=""></path><path d="M18.175,31.75h4.001l0.013-0.236c0.114-2.125,1.781-3.355,3.892-4.912c1.02-0.752,2.176-1.604,3.255-2.655    c3.31-3.222,2.282-8.444,2.237-8.665l-0.053-0.254l-0.252,0.062c-1.595,0.388-1.71,1.348-1.868,2.676    c-0.083,0.691-0.177,1.475-0.478,2.412c-0.531,1.655-2.017,2.548-3.057,2.985c0.625-0.629,1.458-1.598,2.073-2.795    c0.35-0.683,0.39-1.197,0.118-1.53c-0.483-0.592-1.714-0.27-1.853-0.231L26.12,18.63l-0.052,0.07    c-0.012,0.018-1.308,1.771-5.718,4.862c-4.639,3.251-2.271,8.004-2.246,8.052L18.175,31.75z M20.638,23.973    c4.037-2.831,5.487-4.534,5.78-4.905c0.37-0.087,1.05-0.16,1.251,0.085c0.131,0.161,0.068,0.511-0.176,0.986    c-1.043,2.031-2.802,3.418-2.819,3.432l-0.842,0.656l1.045-0.214c0.146-0.03,3.585-0.767,4.521-3.684    c0.315-0.983,0.416-1.827,0.497-2.505c0.144-1.198,0.221-1.844,1.23-2.176c0.16,1.094,0.566,5.305-2.141,7.941    c-1.054,1.026-2.146,1.831-3.202,2.61c-2.057,1.518-3.842,2.835-4.075,5.051h-3.221C18.158,30.486,16.778,26.677,20.638,23.973z" fill="#210070" style=""></path><path d="M11.649,23.562c-4.41-3.091-5.706-4.845-5.718-4.862L5.88,18.629l-0.084-0.023c-0.14-0.038-1.37-0.36-1.853,0.231    c-0.271,0.333-0.231,0.848,0.118,1.53c0.615,1.197,1.448,2.166,2.073,2.795c-1.04-0.438-2.525-1.33-3.057-2.985    c-0.301-0.938-0.395-1.721-0.478-2.412c-0.158-1.328-0.273-2.288-1.868-2.676L0.48,15.027l-0.053,0.254    c-0.045,0.221-1.072,5.443,2.237,8.665C3.744,24.997,4.9,25.85,5.92,26.602c2.11,1.557,3.777,2.787,3.892,4.912l0.013,0.236h4.001    l0.07-0.136C13.92,31.566,16.288,26.813,11.649,23.562z M13.515,31.25h-3.223c-0.233-2.216-2.019-3.533-4.075-5.051    c-1.056-0.779-2.148-1.584-3.202-2.61c-2.703-2.632-2.3-6.846-2.141-7.941c1.01,0.332,1.087,0.978,1.23,2.176    c0.081,0.678,0.182,1.521,0.497,2.505c0.937,2.917,4.375,3.653,4.521,3.684l1.047,0.215L7.326,23.57    c-0.018-0.014-1.773-1.396-2.819-3.432c-0.244-0.476-0.307-0.825-0.176-0.986c0.201-0.245,0.882-0.172,1.251-0.085    c0.293,0.371,1.743,2.074,5.78,4.905C15.266,26.708,13.859,30.477,13.515,31.25z" fill="#210070" style=""></path></g></g><desc>Created with Snap</desc><defs></defs></g><g><g transform="matrix(1.024,0,0,-1.024,0,0)"><path d="M315 708Q494 708 581 618Q668 529 668 362Q668 253 625 171Q583 90 502 45Q421 0 306 0Q284 0 241 1Q198 3 166 3Q131 3 97 2Q63 2 42 0L42 20Q76 22 93 28Q111 34 117 52Q123 70 123 106L123 602Q123 639 117 656Q111 674 93 680Q76 687 42 688L42 708Q63 707 97 705Q131 704 164 705Q199 706 243 707Q287 708 315 708ZM290 690Q244 690 230 673Q216 656 216 604L216 104Q216 52 230 35Q245 18 291 18Q400 18 460 57Q520 97 544 173Q568 249 568 358Q568 526 506 608Q445 690 290 690ZM979 719Q1029 719 1055 707Q1081 696 1101 682Q1113 675 1120 671Q1128 668 1135 668Q1151 668 1157 712L1180 712Q1179 695 1177 671Q1176 648 1175 609Q1175 571 1175 508L1152 508Q1149 556 1131 600Q1113 644 1078 672Q1044 700 988 700Q935 700 900 668Q866 636 866 584Q866 539 889 508Q912 478 950 453Q989 429 1034 401Q1086 369 1126 337Q1167 306 1190 268Q1214 230 1214 176Q1214 112 1185 70Q1156 28 1108 7Q1060 -14 1002 -14Q949 -14 918 -2Q887 10 865 23Q843 37 831 37Q815 37 809 -7L786 -7Q788 14 788 42Q789 71 789 117Q790 163 790 233L813 233Q817 173 835 121Q854 69 892 37Q931 6 995 6Q1044 6 1084 37Q1125 69 1125 139Q1125 200 1082 240Q1039 280 969 322Q922 351 881 381Q840 411 815 450Q791 490 791 546Q791 605 817 643Q844 682 887 700Q930 719 979 719ZM1243 -188L1243 -169Q1288 -168 1318 -147Q1349 -126 1364 -78Q1380 -29 1380 52L1380 602Q1380 639 1374 656Q1368 674 1350 680Q1333 687 1299 688L1299 708Q1320 707 1354 706Q1388 705 1425 705Q1462 705 1496 706Q1531 707 1554 708L1554 688Q1520 687 1502 680Q1485 674 1479 656Q1473 639 1473 602L1473 236Q1473 195 1472 147Q1471 99 1467 54Q1464 9 1456 -25Q1439 -95 1384 -142Q1330 -188 1243 -188ZM1880 688L1880 708Q1901 707 1935 706Q1969 705 2002 705Q2049 705 2092 706Q2135 707 2153 707Q2258 707 2311 663Q2364 619 2364 550Q2364 515 2349 481Q2335 448 2301 420Q2268 393 2212 376L2212 374Q2291 364 2335 336Q2380 309 2398 272Q2416 235 2416 194Q2416 109 2352 54Q2289 0 2176 0Q2154 0 2110 1Q2066 3 2004 3Q1969 3 1935 2Q1901 2 1880 0L1880 20Q1914 22 1931 28Q1949 34 1955 52Q1961 70 1961 106L1961 602Q1961 639 1955 656Q1949 674 1931 680Q1914 687 1880 688ZM2128 688Q2082 688 2068 671Q2054 654 2054 602L2054 106Q2054 54 2068 38Q2083 23 2129 23Q2227 23 2271 68Q2316 114 2316 198Q2316 275 2274 317Q2233 359 2138 359L2035 359Q2035 359 2035 367Q2035 376 2035 376L2121 376Q2180 376 2212 398Q2244 421 2256 458Q2268 496 2268 539Q2268 613 2235 650Q2203 688 2128 688ZM2624 -7Q2559 -7 2529 25Q2500 58 2500 112Q2500 154 2520 181Q2541 209 2573 226Q2605 244 2640 256Q2676 269 2708 281Q2740 293 2760 308Q2781 323 2781 346L2781 408Q2781 450 2768 472Q2756 494 2735 501Q2714 509 2688 509Q2663 509 2634 502Q2606 495 2589 473Q2608 469 2622 453Q2636 437 2636 412Q2636 387 2620 372Q2604 358 2579 358Q2550 358 2536 376Q2523 395 2523 418Q2523 444 2536 460Q2549 476 2569 490Q2592 506 2628 517Q2665 529 2711 529Q2752 529 2781 519Q2810 510 2829 492Q2855 468 2863 433Q2871 399 2871 351L2871 73Q2871 49 2878 37Q2885 26 2902 26Q2916 26 2926 32Q2937 38 2947 47L2958 30Q2937 14 2918 3Q2899 -7 2867 -7Q2815 -7 2798 20Q2781 47 2781 82Q2749 29 2708 11Q2668 -7 2624 -7ZM2668 33Q2698 33 2727 50Q2756 68 2781 109L2781 305Q2766 283 2734 270Q2703 257 2669 241Q2636 226 2612 199Q2588 173 2588 124Q2588 78 2611 55Q2634 33 2668 33ZM3324 529Q3362 529 3387 519Q3413 509 3430 491Q3449 471 3457 441Q3465 411 3465 360L3465 93Q3465 51 3482 36Q3500 21 3541 21L3541 0Q3524 1 3489 2Q3454 4 3421 4Q3388 4 3356 2Q3325 1 3309 0L3309 21Q3345 21 3360 36Q3375 51 3375 93L3375 382Q3375 413 3370 439Q3365 465 3347 481Q3330 497 3294 497Q3231 497 3192 444Q3154 392 3154 315L3154 93Q3154 51 3169 36Q3184 21 3220 21L3220 0Q3204 1 3172 2Q3141 4 3108 4Q3075 4 3040 2Q3005 1 2988 0L2988 21Q3029 21 3046 36Q3064 51 3064 93L3064 406Q3064 451 3048 472Q3032 494 2988 494L2988 515Q3020 512 3050 512Q3079 512 3105 515Q3132 519 3154 526L3154 408Q3180 476 3226 502Q3273 529 3324 529ZM3742 784L3742 93Q3742 51 3757 36Q3772 21 3808 21L3808 0Q3792 1 3760 2Q3729 4 3697 4Q3663 4 3628 2Q3593 1 3576 0L3576 21Q3617 21 3634 36Q3652 51 3652 93L3652 664Q3652 709 3636 730Q3620 752 3576 752L3576 773Q3608 770 3638 770Q3667 770 3693 773Q3720 777 3742 784ZM4060 515L4060 495Q4035 493 4013 481Q3991 470 3970 448L3829 300L3843 328L4029 73Q4046 50 4061 37Q4077 24 4099 21L4099 0Q4088 1 4064 2Q4041 4 4018 4Q3987 4 3955 2Q3923 1 3907 0L3907 21Q3927 21 3935 31Q3943 41 3932 55L3817 223Q3798 250 3782 258Q3767 266 3738 267L3738 287Q3770 291 3790 300Q3810 310 3828 329L3902 406Q3934 439 3934 458Q3934 478 3913 486Q3893 495 3860 495L3860 515Q3886 514 3918 512Q3951 511 3973 511Q3990 511 4006 511Q4022 512 4036 513Q4050 514 4060 515ZM4249 765Q4275 765 4294 746Q4313 727 4313 701Q4313 675 4294 656Q4275 637 4249 637Q4223 637 4204 656Q4185 675 4185 701Q4185 727 4204 746Q4223 765 4249 765ZM4301 526L4301 93Q4301 51 4318 36Q4336 21 4377 21L4377 0Q4360 1 4325 2Q4291 4 4256 4Q4222 4 4187 2Q4152 1 4135 0L4135 21Q4176 21 4193 36Q4211 51 4211 93L4211 406Q4211 451 4195 472Q4179 494 4135 494L4135 515Q4167 512 4197 512Q4226 512 4252 515Q4279 519 4301 526ZM4764 529Q4802 529 4827 519Q4853 509 4870 491Q4889 471 4897 441Q4905 411 4905 360L4905 93Q4905 51 4922 36Q4940 21 4981 21L4981 0Q4964 1 4929 2Q4894 4 4861 4Q4828 4 4796 2Q4765 1 4749 0L4749 21Q4785 21 4800 36Q4815 51 4815 93L4815 382Q4815 413 4810 439Q4805 465 4787 481Q4770 497 4734 497Q4671 497 4632 444Q4594 392 4594 315L4594 93Q4594 51 4609 36Q4624 21 4660 21L4660 0Q4644 1 4612 2Q4581 4 4548 4Q4515 4 4480 2Q4445 1 4428 0L4428 21Q4469 21 4486 36Q4504 51 4504 93L4504 406Q4504 451 4488 472Q4472 494 4428 494L4428 515Q4460 512 4490 512Q4519 512 4545 515Q4572 519 4594 526L4594 408Q4620 476 4666 502Q4713 529 4764 529ZM5209 -188Q5156 -188 5109 -177Q5062 -166 5033 -143Q5005 -119 5005 -83Q5005 -48 5033 -23Q5061 2 5109 15L5115 -1Q5093 -8 5080 -29Q5067 -50 5067 -76Q5067 -122 5109 -147Q5152 -171 5220 -171Q5265 -171 5308 -160Q5351 -148 5379 -121Q5407 -94 5407 -50Q5407 -17 5383 4Q5360 26 5291 26L5217 26Q5185 26 5155 31Q5125 36 5106 52Q5087 68 5087 101Q5087 135 5115 166Q5143 198 5218 231L5230 222Q5196 204 5171 185Q5146 167 5146 142Q5146 110 5194 110L5319 110Q5381 110 5428 82Q5476 55 5476 -8Q5476 -55 5446 -96Q5416 -137 5356 -163Q5297 -188 5209 -188ZM5214 213Q5140 213 5089 251Q5039 289 5039 371Q5039 454 5089 491Q5140 529 5214 529Q5288 529 5338 491Q5389 454 5389 371Q5389 289 5338 251Q5288 213 5214 213ZM5214 231Q5252 231 5273 261Q5295 291 5295 371Q5295 451 5273 481Q5252 511 5214 511Q5177 511 5155 481Q5133 451 5133 371Q5133 291 5155 261Q5177 231 5214 231ZM5358 446L5340 453Q5354 487 5388 513Q5422 539 5459 539Q5485 539 5501 524Q5517 510 5517 481Q5517 450 5500 437Q5484 425 5467 425Q5452 425 5439 435Q5426 446 5424 469Q5422 492 5438 528L5451 525Q5409 509 5391 491Q5373 474 5358 446Z" fill="#210070" style=""></path></g></g></g></svg>